<svg width="100" height="100" fill="none" xmlns="http://www.w3.org/2000/svg"><circle cx="50" cy="50" r="50" fill="#F5F5F5"/><path d="M64.688 49.688H58c-.375 0-.688.124-.938.374s-.374.563-.374.938v12c0 .375.124.688.374.938s.563.374.938.374h6.688c.374 0 .687-.124.937-.374S66 63.374 66 63V51c0-.375-.125-.688-.375-.938a1.272 1.272 0 00-.938-.374zm0 12H58v-9.376h6.688v9.376zm-4-24h-24c-.792 0-1.438.25-1.938.75S34 39.562 34 40.312v16c0 .75.25 1.396.75 1.938.542.5 1.188.75 1.938.75H46v2.688h-2.688v2.624H54v-2.624h-2.688V59H54v-2.688H36.687v-16h24V47h2.626v-6.688c0-.75-.25-1.374-.75-1.874s-1.126-.75-1.876-.75z" fill="#000"/></svg>