<svg width="100" height="100" fill="none" xmlns="http://www.w3.org/2000/svg"><circle cx="50" cy="50" r="50" fill="#F5F5F5"/><path d="M60.688 56.313v-8h2.624v8c0 .75-.25 1.395-.75 1.937-.5.5-1.124.75-1.874.75h-16c-.792 0-1.438-.25-1.938-.75a2.759 2.759 0 01-.75-1.938v-16c0-.75.25-1.374.75-1.874s1.146-.75 1.938-.75h10.624v2.624H44.688v16h16zM48.562 44.437l4.126 4.126 8.75-8.813 1.874 1.938-10.624 10.624-6-6 1.874-1.874zm6.75 17.25v2.626h-16c-.75 0-1.374-.25-1.874-.75s-.75-1.126-.75-1.876V44.314h2.624v17.374h16z" fill="#000"/></svg>