<svg width="100" height="100" fill="none" xmlns="http://www.w3.org/2000/svg"><circle cx="50" cy="50" r="50" fill="#F5F5F5"/><path d="M62 49.688c-.083 3.791-1.23 7.166-3.438 10.124-2.207 2.96-5.062 4.918-8.562 5.877-3.5-.959-6.354-2.917-8.563-5.876C39.23 56.855 38.084 53.48 38 49.688v-8l12-5.376 12 5.376v8zM50 63c2.583-.75 4.77-2.354 6.563-4.813 1.791-2.5 2.708-5.25 2.75-8.25v-6.562L50 39.25l-9.313 4.125v6.563c.084 3 1 5.75 2.75 8.25C45.23 60.645 47.417 62.25 50 63zm3.75-13.313v-2c-.042-.958-.438-1.75-1.188-2.374A3.892 3.892 0 0050 44.374c-.958 0-1.813.313-2.563.938-.75.624-1.145 1.416-1.187 2.374v2c-.417 0-.792.167-1.125.5a1.446 1.446 0 00-.438 1.063v4.688c0 .458.146.854.438 1.187.333.333.708.52 1.125.563h7.375a2.036 2.036 0 001.188-.5c.333-.334.5-.709.5-1.126v-4.687c0-.458-.167-.854-.5-1.188-.292-.333-.646-.5-1.063-.5zm-1.75 0h-4v-2c0-.541.188-.958.563-1.25.416-.333.895-.5 1.437-.5s1 .167 1.375.5c.417.292.625.709.625 1.25v2z" fill="#000"/></svg>